<svg width="45" height="24" viewBox="0 0 45 24" fill="none" xmlns="http://www.w3.org/2000/svg">
<g style="mix-blend-mode:hard-light">
<path fill-rule="evenodd" clip-rule="evenodd" d="M12.002 2.55173C9.49605 2.55173 7.094 3.5459 5.32168 5.31826C3.54932 7.09058 2.55515 9.49264 2.55515 11.9985C2.55515 14.5044 3.54932 16.9065 5.32168 18.6788C7.094 20.4512 9.49605 21.4454 12.002 21.4454H13.1486C10.3487 19.2487 8.55015 15.834 8.55015 11.9985C8.55015 8.16304 10.3487 4.74835 13.1486 2.55173H12.002ZM20.6828 -0.000747192V-0.00146484H20.5502H12.002C8.81934 -0.00146484 5.76778 1.26138 3.51628 3.51286C1.2648 5.76436 0.00195312 8.81592 0.00195312 11.9985C0.00195312 15.1811 1.2648 18.2327 3.51628 20.4842C5.76778 22.7357 8.81934 23.9985 12.002 23.9985H20.5502H20.6828V23.9978C22.2158 23.9812 23.6796 23.6774 25.0232 23.1374V23.9985H32.4275C35.6101 23.9985 38.6617 22.7357 40.9132 20.4842C43.1647 18.2327 44.4277 15.1811 44.4277 11.9985C44.4277 8.81592 43.1647 5.76436 40.9132 3.51286C38.6617 1.26138 35.6101 -0.00146484 32.4275 -0.00146484H25.0232V0.859638C23.6796 0.31974 22.2158 0.0158473 20.6828 -0.000747192ZM25.0232 3.67531C23.6918 2.95846 22.1686 2.55173 20.5502 2.55173C15.3318 2.55173 11.1033 6.78016 11.1033 11.9985C11.1033 17.2169 15.3318 21.4454 20.5502 21.4454C22.1686 21.4454 23.6918 21.0386 25.0232 20.3217V3.67531ZM27.5764 18.314V5.68302C29.0813 7.35629 29.9969 9.57025 29.9969 11.9985C29.9969 14.4268 29.0813 16.6408 27.5764 18.314ZM27.9517 21.4454C30.7516 19.2487 32.5502 15.834 32.5502 11.9985C32.5502 8.16304 30.7516 4.74835 27.9517 2.55173H32.4275C34.9334 2.55173 37.3355 3.5459 39.1078 5.31826C40.8801 7.09058 41.8743 9.49264 41.8743 11.9985C41.8743 14.5044 40.8801 16.9065 39.1078 18.6788C37.3355 20.4512 34.9334 21.4454 32.4275 21.4454H27.9517Z" fill="white"/>
</g>
</svg>
