<svg width="23" height="22" viewBox="0 0 23 22" fill="none" xmlns="http://www.w3.org/2000/svg">
<path d="M17.8776 5.19542C19.9481 8.23967 20.9706 11.6735 20.5884 15.6266C20.5868 15.6433 20.5781 15.6587 20.5643 15.6688C18.9964 16.8201 17.4772 17.5188 15.9794 17.9822C15.9677 17.9858 15.9553 17.9856 15.9437 17.9817C15.9322 17.9778 15.9221 17.9703 15.915 17.9604C15.569 17.479 15.2545 16.9714 14.9791 16.4383C14.9633 16.4069 14.9777 16.3691 15.0103 16.3567C15.5096 16.1686 15.9844 15.9431 16.4412 15.6761C16.4771 15.655 16.4794 15.6035 16.4462 15.5787C16.3493 15.5068 16.2532 15.4311 16.1614 15.3555C16.1442 15.3415 16.121 15.3388 16.1015 15.3482C13.1364 16.7174 9.88815 16.7174 6.88791 15.3482C6.86843 15.3395 6.84528 15.3424 6.82856 15.3562C6.73689 15.4318 6.64064 15.5068 6.54462 15.5787C6.51139 15.6035 6.51414 15.655 6.55035 15.6761C7.00708 15.9381 7.48191 16.1686 7.98057 16.3577C8.01289 16.37 8.02824 16.4069 8.0122 16.4383C7.7427 16.972 7.42828 17.4797 7.07583 17.9611C7.06047 17.9806 7.03526 17.9895 7.01143 17.9822C5.5207 17.5188 4.00156 16.8201 2.4336 15.6688C2.42054 15.6587 2.41115 15.6427 2.40977 15.6259C2.09031 12.2065 2.74137 8.74429 5.11806 5.19474C5.12379 5.18534 5.13249 5.17801 5.14258 5.17365C6.31201 4.63694 7.56487 4.24209 8.87432 4.01659C8.89816 4.01292 8.92199 4.02392 8.93436 4.04501C9.09616 4.33147 9.28109 4.69882 9.40622 4.99903C10.7865 4.78819 12.1883 4.78819 13.5974 4.99903C13.7226 4.70524 13.9011 4.33147 14.0622 4.04501C14.0679 4.03455 14.0768 4.02617 14.0876 4.02107C14.0984 4.01596 14.1105 4.0144 14.1222 4.01659C15.4324 4.24278 16.6852 4.63763 17.8537 5.17365C17.8641 5.17801 17.8725 5.18534 17.8776 5.19542ZM10.1079 11.6969C10.1224 10.686 9.38536 9.84956 8.46022 9.84956C7.54264 9.84956 6.81274 10.6787 6.81274 11.6969C6.81274 12.7148 7.55707 13.544 8.46022 13.544C9.37803 13.544 10.1079 12.7148 10.1079 11.6969ZM16.1996 11.6969C16.2141 10.686 15.4771 9.84956 14.5521 9.84956C13.6343 9.84956 12.9044 10.6787 12.9044 11.6969C12.9044 12.7148 13.6488 13.544 14.5521 13.544C15.4771 13.544 16.1996 12.7148 16.1996 11.6969Z" fill="white"/>
</svg>
