<svg width="24" height="24" viewBox="0 0 24 24" fill="none" xmlns="http://www.w3.org/2000/svg">
<path opacity="0.4" d="M4 12V18C4 20 5 21 7 21H17C19 21 20 20 20 18V12" fill="#875DFF"/>
<path d="M21 8.5C21 7.672 20.328 7 19.5 7H18.4351C18.6291 6.623 18.75 6.202 18.75 5.75C18.75 4.234 17.517 3 16 3C15.178 3 14.405 3.36599 13.874 4.01099C13.847 4.04499 12.723 5.53898 12 6.50098C11.276 5.53798 10.151 4.04199 10.119 4.00299C9.59502 3.36499 8.822 3 8 3C6.483 3 5.25 4.234 5.25 5.75C5.25 6.202 5.36994 6.623 5.56494 7H4.5C3.672 7 3 7.672 3 8.5V12H11.25V21H12.75V12H21V8.5ZM8 7C7.311 7 6.75 6.439 6.75 5.75C6.75 5.061 7.311 4.5 8 4.5C8.378 4.5 8.719 4.66198 8.948 4.94098C9.003 5.01198 9.82105 6.1 10.498 7H8ZM16 7H13.502C14.177 6.102 14.9919 5.01797 15.0389 4.95697C15.2809 4.66297 15.622 4.5 16 4.5C16.689 4.5 17.25 5.061 17.25 5.75C17.25 6.439 16.689 7 16 7Z" fill="#875DFF"/>
</svg>
