<svg width="28" height="28" viewBox="0 0 28 28" fill="none" xmlns="http://www.w3.org/2000/svg">
<path d="M19.5423 10.5678V8.16667C19.5423 5.11 17.0573 2.625 14.0007 2.625C10.944 2.625 8.45898 5.11 8.45898 8.16667V10.5678C6.71132 10.8396 5.83398 11.9805 5.83398 14V21C5.83398 23.3333 7.00065 24.5 9.33398 24.5H18.6673C21.0007 24.5 22.1673 23.3333 22.1673 21V14C22.1673 11.9805 21.29 10.8396 19.5423 10.5678ZM14.8757 17.4849V19.8333C14.8757 20.3163 14.4837 20.7083 14.0007 20.7083C13.5177 20.7083 13.1257 20.3163 13.1257 19.8333V17.4556C12.7897 17.1884 12.5597 16.7942 12.5597 16.3333C12.5597 15.5283 13.2073 14.875 14.0123 14.875H14.024C14.829 14.875 15.4823 15.5283 15.4823 16.3333C15.4823 16.814 15.2338 17.2201 14.8757 17.4849ZM17.7923 10.5H10.209V8.16667C10.209 6.07833 11.9123 4.375 14.0007 4.375C16.089 4.375 17.7923 6.07833 17.7923 8.16667V10.5Z" fill="white"/>
</svg>
