<svg width="33" height="32" viewBox="0 0 33 32" fill="none" xmlns="http://www.w3.org/2000/svg">
<path d="M28.1673 5.3335V12.0002C28.1673 12.5522 27.7193 13.0002 27.1673 13.0002C26.6153 13.0002 26.1673 12.5522 26.1673 12.0002V7.74821L15.874 18.0415C15.6794 18.2362 15.4233 18.3348 15.1673 18.3348C14.9113 18.3348 14.6553 18.2375 14.4606 18.0415C14.0699 17.6508 14.0699 17.0175 14.4606 16.6268L24.7539 6.3335H20.5007C19.9487 6.3335 19.5007 5.8855 19.5007 5.3335C19.5007 4.7815 19.9487 4.3335 20.5007 4.3335H27.1673C27.298 4.3335 27.4275 4.3603 27.5501 4.41097C27.7941 4.5123 27.9888 4.70698 28.0915 4.95231C28.1408 5.07364 28.1673 5.20283 28.1673 5.3335ZM27.1673 16.3335C26.6153 16.3335 26.1673 16.7815 26.1673 17.3335V22.6668C26.1673 24.7695 25.27 25.6668 23.1673 25.6668H9.83398C7.73132 25.6668 6.83398 24.7695 6.83398 22.6668V9.3335C6.83398 7.23083 7.73132 6.3335 9.83398 6.3335H15.1673C15.7193 6.3335 16.1673 5.8855 16.1673 5.3335C16.1673 4.7815 15.7193 4.3335 15.1673 4.3335H9.83398C6.60998 4.3335 4.83398 6.1095 4.83398 9.3335V22.6668C4.83398 25.8908 6.60998 27.6668 9.83398 27.6668H23.1673C26.3913 27.6668 28.1673 25.8908 28.1673 22.6668V17.3335C28.1673 16.7815 27.7193 16.3335 27.1673 16.3335Z" fill="white"/>
</svg>
