<svg width="24" height="24" viewBox="0 0 24 24" fill="none" xmlns="http://www.w3.org/2000/svg">
<path d="M20.6339 3.71428L2.52077 10.7235C2.50999 10.7277 2.49955 10.7326 2.48952 10.7383C2.34264 10.8216 1.3176 11.4485 2.76297 12.0107L2.77781 12.0161L7.09085 13.4095C7.12376 13.4202 7.1586 13.4236 7.19295 13.4194C7.22729 13.4152 7.26031 13.4036 7.28969 13.3853L17.9873 6.71086C18.0135 6.69449 18.0428 6.68348 18.0733 6.67844C18.2221 6.65383 18.6506 6.60774 18.3795 6.95189C18.0729 7.34253 10.766 13.8904 9.95501 14.6166C9.90825 14.6586 9.87932 14.7169 9.87415 14.7795L9.52023 18.9984C9.52019 19.0414 9.53015 19.0838 9.54934 19.1222C9.56853 19.1607 9.59642 19.1941 9.63078 19.2199C9.67955 19.2506 9.73689 19.2648 9.79436 19.2605C9.85182 19.2561 9.90636 19.2334 9.94993 19.1957L12.5125 16.9054C12.553 16.8692 12.6046 16.848 12.6589 16.8452C12.7131 16.8424 12.7666 16.8583 12.8106 16.8901L17.2814 20.1363L17.2959 20.1461C17.4041 20.2129 18.5729 20.893 18.9104 19.3742L21.9964 4.69986C22.0007 4.65337 22.0425 4.14242 21.6773 3.84045C21.2937 3.52482 20.7507 3.6842 20.6691 3.70139C20.657 3.70474 20.6453 3.70905 20.6339 3.71428Z" fill="white"/>
</svg>
