<?xml version="1.0" encoding="UTF-8"?>
<svg version="1.1" xmlns="http://www.w3.org/2000/svg" width="128" height="128">
<path d="M0 0 C13.4049791 10.08466889 22.8895283 24.50756459 25.4140625 41.22265625 C27.18485288 61.98721061 23.29842818 79.57058598 9.65625 95.8125 C-1.52088628 107.82694788 -16.23240541 115.81854174 -32.78515625 116.55859375 C-53.04635469 116.8915543 -69.39297325 112.35679155 -84.5859375 98.22265625 C-98.11616884 84.40360224 -103.01172963 68.53868692 -102.95166016 49.61206055 C-102.62380549 31.62065989 -94.95829184 16.37822505 -82.15625 3.84375 C-58.82102307 -16.61785106 -25.26462465 -17.36465894 0 0 Z " fill="#F9B51C" transform="translate(102.5859375,11.77734375)"/>
<path d="M0 0 C13.4049791 10.08466889 22.8895283 24.50756459 25.4140625 41.22265625 C27.18485288 61.98721061 23.29842818 79.57058598 9.65625 95.8125 C-1.52088628 107.82694788 -16.23240541 115.81854174 -32.78515625 116.55859375 C-53.04635469 116.8915543 -69.39297325 112.35679155 -84.5859375 98.22265625 C-98.11616884 84.40360224 -103.01172963 68.53868692 -102.95166016 49.61206055 C-102.62380549 31.62065989 -94.95829184 16.37822505 -82.15625 3.84375 C-58.82102307 -16.61785106 -25.26462465 -17.36465894 0 0 Z M-71.5859375 5.22265625 C-76.68305481 13.48350155 -75.03214663 24.00307302 -73.5859375 33.22265625 C-74.13121094 33.36960938 -74.67648438 33.5165625 -75.23828125 33.66796875 C-83.7570739 36.20176349 -91.80378939 40.50951414 -96.5859375 48.22265625 C-97.34326105 52.99379463 -97.19293595 55.83117908 -94.5859375 59.91015625 C-89.70143372 65.95042994 -82.81874152 68.89344817 -75.5859375 71.22265625 C-74.5959375 71.22265625 -73.6059375 71.22265625 -72.5859375 71.22265625 C-72.9159375 72.25390625 -73.2459375 73.28515625 -73.5859375 74.34765625 C-75.44630081 81.97921962 -76.48291619 91.02448058 -72.2734375 97.97265625 C-70.1885626 100.85266363 -68.12079454 102.92484817 -64.4921875 103.62890625 C-54.16291982 104.03134525 -46.53469531 98.22838437 -38.5859375 92.22265625 C-37.78929687 92.84914063 -36.99265625 93.475625 -36.171875 94.12109375 C-35.1018939 94.94704407 -34.03156263 95.7725409 -32.9609375 96.59765625 C-32.43886719 97.01015625 -31.91679688 97.42265625 -31.37890625 97.84765625 C-25.79282057 102.12342554 -20.64459734 103.72192273 -13.69921875 103.53515625 C-10.36184796 103.04164486 -8.80510154 101.70289841 -6.5859375 99.22265625 C-3.80040232 94.58909047 -3.2018475 91.1654198 -3.2734375 85.78515625 C-3.27730469 84.52832031 -3.28117187 83.27148438 -3.28515625 81.9765625 C-3.59861675 78.06441266 -4.38272212 74.93776348 -5.5859375 71.22265625 C-4.90660156 71.1246875 -4.22726563 71.02671875 -3.52734375 70.92578125 C0.05859395 70.06858499 3.19628823 68.60757556 6.4765625 66.97265625 C7.08822266 66.68519531 7.69988281 66.39773437 8.33007812 66.1015625 C12.39600687 64.08837832 14.90741725 61.99765198 17.4140625 58.22265625 C18.66904207 54.45771755 18.93470694 52.19257007 18.4140625 48.22265625 C14.39561426 41.30718718 7.66197155 37.20223764 0.4140625 34.22265625 C-1.57504038 33.82948855 -3.5746962 33.47959897 -5.5859375 33.22265625 C-5.2559375 31.96453125 -4.9259375 30.70640625 -4.5859375 29.41015625 C-2.70851212 20.81992212 -2.73819459 13.20316006 -6.5859375 5.22265625 C-8.93933637 2.47378264 -10.88476144 1.46177738 -14.53125 0.94921875 C-21.8932536 0.60618632 -27.02658425 3.16175287 -32.56640625 7.92578125 C-33.72831739 8.98611807 -34.86955703 10.06993904 -35.98046875 11.18359375 C-37.5859375 12.22265625 -37.5859375 12.22265625 -39.5859375 12.0625 C-41.80497887 11.13067599 -43.05569006 10.08549017 -44.7734375 8.41015625 C-50.52933069 3.3169885 -56.79313846 0.42330648 -64.578125 0.84375 C-67.86807266 1.46461561 -69.40572376 2.72182284 -71.5859375 5.22265625 Z " fill="#9667FC" transform="translate(102.5859375,11.77734375)"/>
<path d="M0 0 C7.12005946 0.15177594 7.12005946 0.15177594 10.46118164 2.42797852 C11.97885125 4.7928129 12.93782536 7.02290771 13.87524414 9.66625977 C14.6682299 10.90810538 15.47915798 12.13879431 16.31274414 13.35375977 C18.34770188 17.66787017 17.68872133 20.08005094 16.28125 24.5546875 C14.42988208 29.54482286 12.11434006 34.31314852 7.87524414 37.66625977 C1.25996908 40.28584237 -6.5094808 40.28584237 -13.12475586 37.66625977 C-17.88051315 33.90447104 -20.29711953 28.31806654 -22.12475586 22.66625977 C-22.44702148 21.6749707 -22.76928711 20.68368164 -23.10131836 19.66235352 C-23.13605035 15.22244679 -21.13403199 12.49049047 -18.74975586 8.85375977 C-18.11166992 7.83378906 -18.11166992 7.83378906 -17.46069336 6.79321289 C-12.60324203 -0.91568534 -8.78668036 0.1234269 0 0 Z " fill="#9A66F7" transform="translate(66.124755859375,45.333740234375)"/>
<path d="M0 0 C0.33 0 0.66 0 1 0 C0.67 2.31 0.34 4.62 0 7 C1.11375 7.20625 2.2275 7.4125 3.375 7.625 C11.03068788 9.5660698 18.1463884 13.94099921 23 20.21484375 C24.75073517 23.34017958 24.61981082 25.52905941 24 29 C20.81023996 37.26437829 13.7984385 40.35267906 6.0625 43.875 C3 45 3 45 0 45 C0.32097656 46.00160156 0.64195313 47.00320312 0.97265625 48.03515625 C2.90122432 54.82870384 3.51301619 63.00796497 0.984375 69.6796875 C-1.04888066 73.02353566 -2.70900743 74.80600495 -6 77 C-12.83670172 78.02020549 -18.42050076 76.49037517 -24.10546875 72.53515625 C-25.48425213 71.50797519 -26.85136076 70.46483044 -28.203125 69.40234375 C-29.7485218 68.19626234 -31.36890898 67.08739401 -33 66 C-32.34 64.68 -31.68 63.36 -31 62 C-27.33595766 62.60093633 -25.27333397 64.15839767 -22.4375 66.5 C-18.54044067 69.70702353 -15.90443534 71.14597435 -10.8125 71.0625 C-9.554375 71.041875 -8.29625 71.02125 -7 71 C-2.44448462 63.59728751 -3.80264353 56.2318257 -5 48 C-9.95 48.33 -14.9 48.66 -20 49 C-16 43 -16 43 -13.640625 42.1953125 C-12.85171875 42.17210937 -12.0628125 42.14890625 -11.25 42.125 C-9.8475 42.08375 -8.445 42.0425 -7 42 C-7.99 38.37 -8.98 34.74 -10 31 C-9.01 31 -8.02 31 -7 31 C-6.731875 31.94875 -6.46375 32.8975 -6.1875 33.875 C-5.25013412 37.25267273 -5.25013412 37.25267273 -2 39 C5.35789467 38.85284211 11.33336105 35.47616474 16.625 30.5625 C18.19121946 28.04997619 18.19121946 28.04997619 18.25 25.0625 C16.04068501 19.64967826 11.50599364 17.10177307 6.28125 14.8046875 C4.53334273 14.12662003 2.77452314 13.47571187 1.00390625 12.859375 C-1 12 -1 12 -2 10 C-2.99 11.485 -2.99 11.485 -4 13 C-4.66 13 -5.32 13 -6 13 C-6.13019531 13.72832031 -6.26039062 14.45664062 -6.39453125 15.20703125 C-8.02319126 22.71988226 -11.56882795 29.19131163 -15.60546875 35.66015625 C-17.4050314 38.67959049 -18.7207234 41.73073759 -20 45 C-20.99 44.34 -21.98 43.68 -23 43 C-22.43410156 42.13117188 -21.86820313 41.26234375 -21.28515625 40.3671875 C-20.54374793 39.20345798 -19.80289165 38.03937662 -19.0625 36.875 C-18.68931641 36.30523437 -18.31613281 35.73546875 -17.93164062 35.1484375 C-15.15608575 30.7475577 -13.47494574 26.85029458 -14.4375 21.625 C-14.623125 21.08875 -14.80875 20.5525 -15 20 C-13.68 20.66 -12.36 21.32 -11 22 C-10.78085938 21.38253906 -10.56171875 20.76507813 -10.3359375 20.12890625 C-8.2368151 14.52271349 -5.7581593 9.77657158 -2.26953125 4.91015625 C-0.82915016 2.92370044 -0.82915016 2.92370044 0 0 Z " fill="#FBBA24" transform="translate(97,38)"/>
<path d="M0 0 C2.36497439 1.86708505 3.66030715 3.32061431 5 6 C5.1235718 8.08060425 5.17560367 10.16576333 5.1875 12.25 C5.20167969 13.36890625 5.21585938 14.4878125 5.23046875 15.640625 C4.99467313 19.07764584 4.22846663 21.79530445 3 25 C1.10353002 24.88506243 -0.79218332 24.75760358 -2.6875 24.625 C-3.74324219 24.55539063 -4.79898438 24.48578125 -5.88671875 24.4140625 C-11.51687367 23.66525896 -14.39060173 22.12630421 -17.875 17.625 C-18.49117188 16.85414062 -19.10734375 16.08328125 -19.7421875 15.2890625 C-21 13 -21 13 -20.96484375 10.9375 C-19.66419819 8.32567733 -18.02238343 7.10992157 -15.6875 5.375 C-14.90761719 4.78460937 -14.12773438 4.19421875 -13.32421875 3.5859375 C-8.72381914 0.44684129 -5.68922668 -0.60956 0 0 Z " fill="#8D75FA" transform="translate(89,18)"/>
<path d="M0 0 C7.76347987 1.29391331 13.10191873 5.32992381 18.75 10.625 C17.68926826 16.45902459 14.35713415 21.0088591 9.75 24.625 C4.66889341 25.76953209 -0.06612885 25.8544943 -5.25 25.625 C-8.2803391 19.21280246 -8.57695284 11.19384959 -6.59765625 4.37890625 C-4.88124047 1.30703766 -3.40472628 0.65475505 0 0 Z " fill="#7791F9" transform="translate(40.25,17.375)"/>
<path d="M0 0 C5.87562728 12.21058698 5.87562728 12.21058698 3.9375 18.5 C3.33012092 20.01597868 2.6882131 21.51896542 2 23 C1.608125 24.03125 1.21625 25.0625 0.8125 26.125 C0.544375 26.74375 0.27625 27.3625 0 28 C-7.47460355 27.52289765 -13.92700423 24.54927331 -19.125 19.0625 C-21 16 -21 16 -21.25 13 C-18.49059871 6.3774369 -12.4270615 3.42283682 -6.11328125 0.6640625 C-4 0 -4 0 0 0 Z " fill="#8281F9" transform="translate(32,50)"/>
<path d="M0 0 C14.13014462 0.52585172 14.13014462 0.52585172 18.62109375 4.06640625 C23 9.73804574 23 9.73804574 23 13 C23.66 13 24.32 13 25 13 C25 13.66 25 14.32 25 15 C23.30508386 16.40268922 21.542165 17.72390346 19.75 19 C18.77546875 19.70125 17.8009375 20.4025 16.796875 21.125 C12.38897902 24.08001407 9.24870549 25.62122035 3.90625 25.421875 C2 25 2 25 -0.5 22.75 C-3.62156919 16.93504147 -2.71933923 9.2516579 -0.9765625 3.12109375 C-0.65429688 2.09113281 -0.33203125 1.06117187 0 0 Z " fill="#A556F9" transform="translate(35,85)"/>
<path d="M0 0 C2.67107083 2.67107083 2.11785988 9.91249185 2.25 13.625 C2.21239932 17.97163814 1.17683734 21.82316266 -2 25 C-9.82002421 25.83785974 -14.74349644 23.23389388 -20.90234375 18.5546875 C-22.29815523 17.40519569 -23.65425413 16.20772065 -25 15 C-23.6512925 12.04196519 -22.10431451 9.79203633 -19.9375 7.375 C-18.33621517 5.5818742 -17.07671842 4.15343684 -16 2 C-13.671875 1.3671875 -13.671875 1.3671875 -10.75 0.875 C-9.79609375 0.70742187 -8.8421875 0.53984375 -7.859375 0.3671875 C-5.18728667 0.02405047 -2.68920234 -0.14304268 0 0 Z " fill="#BA3BFA" transform="translate(92,85)"/>
<path d="M0 0 C7.88210015 1.25112701 14.40058746 3.85424806 19.75 10.015625 C21 12 21 12 21.125 14.875 C19.24302299 20.10271393 15.45783895 22.66161375 10.67578125 25.265625 C6.76929541 27.09941339 4.40422208 28 0 28 C-0.87042243 26.11157486 -1.72075474 24.21388098 -2.5625 22.3125 C-3.03816406 21.25675781 -3.51382813 20.20101562 -4.00390625 19.11328125 C-5.6651575 13.92105677 -3.78763259 10.14108081 -1.9375 5.1875 C-1.57527344 4.21167969 -1.21304688 3.23585937 -0.83984375 2.23046875 C-0.42412109 1.12638672 -0.42412109 1.12638672 0 0 Z " fill="#AE49FB" transform="translate(95,50)"/>
<path d="M0 0 C3.79784781 4.64181399 3.79784781 4.64181399 5.02734375 6.8203125 C6.77300737 9.78980436 8.01602084 11.61845706 11.296875 12.890625 C16.20135896 13.93097008 21.00138805 14.21733095 26 14 C25.1875 15.9375 25.1875 15.9375 24 18 C23.01 18.33 22.02 18.66 21 19 C21.66 19.33 22.32 19.66 23 20 C22.50269348 24.97306516 21.44697666 28.63799813 19 33 C14.91032654 31.30772133 12.94726809 29.08660657 11.11621094 25.05322266 C9.93790189 22.69606651 8.83614817 20.89949989 7 19 C3.55773096 17.87652 0.28414144 17.92374612 -3.3125 18 C-4.24384766 17.98839844 -5.17519531 17.97679688 -6.13476562 17.96484375 C-8.42541701 17.94134989 -10.7098602 17.95416537 -13 18 C-11.55484843 13.46635306 -9.18923754 10.74203039 -5.9375 7.3125 C-2.58041094 3.93079316 -2.58041094 3.93079316 0 0 Z " fill="#F7DE77" transform="translate(67,28)"/>
<path d="M0 0 C0.33 0 0.66 0 1 0 C0.67 2.31 0.34 4.62 0 7 C1.11375 7.20625 2.2275 7.4125 3.375 7.625 C11.03068788 9.5660698 18.1463884 13.94099921 23 20.21484375 C24.75073517 23.34017958 24.61981082 25.52905941 24 29 C20.9900696 36.79845604 15.00871455 39.6850479 7.67578125 43.07421875 C2.52948505 45.17649502 2.52948505 45.17649502 -1 44 C-1.6875 41.9375 -1.6875 41.9375 -2 40 C-1.27554688 39.75765625 -0.55109375 39.5153125 0.1953125 39.265625 C10.72576035 35.85968295 10.72576035 35.85968295 18 28 C18.39433024 25.01787986 18.39433024 25.01787986 17 22 C12.53190355 17.32354672 7.02115902 14.95393016 1.00390625 12.859375 C-1 12 -1 12 -2 10 C-2.99 11.485 -2.99 11.485 -4 13 C-4.66 13 -5.32 13 -6 13 C-6.13019531 13.72832031 -6.26039062 14.45664062 -6.39453125 15.20703125 C-8.02319126 22.71988226 -11.56882795 29.19131163 -15.60546875 35.66015625 C-17.4050314 38.67959049 -18.7207234 41.73073759 -20 45 C-20.99 44.34 -21.98 43.68 -23 43 C-22.43410156 42.13117188 -21.86820312 41.26234375 -21.28515625 40.3671875 C-20.54374793 39.20345798 -19.80289165 38.03937662 -19.0625 36.875 C-18.68931641 36.30523437 -18.31613281 35.73546875 -17.93164062 35.1484375 C-15.15608575 30.7475577 -13.47494574 26.85029458 -14.4375 21.625 C-14.623125 21.08875 -14.80875 20.5525 -15 20 C-13.68 20.66 -12.36 21.32 -11 22 C-10.78085938 21.38253906 -10.56171875 20.76507813 -10.3359375 20.12890625 C-8.2368151 14.52271349 -5.7581593 9.77657158 -2.26953125 4.91015625 C-0.82915016 2.92370044 -0.82915016 2.92370044 0 0 Z " fill="#FAB824" transform="translate(97,38)"/>
<path d="M0 0 C1.19425362 2.90033023 0.98247628 4.05257116 -0.03125 7.09375 C-1.01041667 9.36458333 -1.98958333 11.63541667 -2.96875 13.90625 C-4.03144306 17.09432919 -4.18353829 17.98289721 -3 21 C-2.75121094 21.85078125 -2.50242188 22.7015625 -2.24609375 23.578125 C-1.97925781 24.45984375 -1.71242187 25.3415625 -1.4375 26.25 C-1.16808594 27.14203125 -0.89867187 28.0340625 -0.62109375 28.953125 C-0.41613281 29.62859375 -0.21117187 30.3040625 0 31 C-2.4375 29.8125 -2.4375 29.8125 -5 28 C-5.8125 25.3125 -5.8125 25.3125 -6 23 C-6.33 23.66 -6.66 24.32 -7 25 C-6.3409159 26.66967972 -5.67349161 28.33607955 -5 30 C-5 31.32 -5 32.64 -5 34 C-6.299375 34.0825 -7.59875 34.165 -8.9375 34.25 C-15.07983534 35.5882204 -17.38322688 39.84134258 -20.78125 44.80078125 C-23.83262983 49.20057012 -27.36627326 53.07913954 -31 57 C-31.33 56.34 -31.66 55.68 -32 55 C-31.00390625 52.8359375 -31.00390625 52.8359375 -29.5625 50.375 C-29.08941406 49.55773437 -28.61632812 48.74046875 -28.12890625 47.8984375 C-27.75636719 47.27195313 -27.38382813 46.64546875 -27 46 C-27.433125 46.495 -27.86625 46.99 -28.3125 47.5 C-30 49 -30 49 -33 49 C-37 44.65714286 -37 44.65714286 -37 42 C-36.26394531 42.06960937 -35.52789062 42.13921875 -34.76953125 42.2109375 C-29.17798724 42.738351 -29.17798724 42.738351 -24.2265625 40.6640625 C-23.06885566 39.16956822 -22.02561678 37.58805179 -21 36 C-20.34 36 -19.68 36 -19 36 C-18.63648437 35.33355469 -18.27296875 34.66710937 -17.8984375 33.98046875 C-17.39570312 33.05878906 -16.89296875 32.13710937 -16.375 31.1875 C-15.82972656 30.18332031 -15.28445312 29.17914063 -14.72265625 28.14453125 C-13.62090305 26.13339445 -12.50500518 24.12990119 -11.37109375 22.13671875 C-8.55072027 17.13921487 -6.2386254 12.42729398 -4.73828125 6.875 C-3.87270183 4.67670307 -2.71588984 3.59364966 -1 2 C-0.67 1.34 -0.34 0.68 0 0 Z " fill="#FBE281" transform="translate(95,46)"/>
<path d="M0 0 C2.80145171 1.89459002 4.52170802 3.96319865 6 7 C6.69174258 11.47101912 5.47045828 14.29431259 3 18 C-0.53683809 20.35789206 -2.66551457 20.71978175 -6.84375 20.50390625 C-10.2622854 19.70500939 -11.89740451 17.69395048 -14 15 C-14.33 14.67 -14.66 14.34 -15 14 C-15.38301738 10.74435228 -15.67642942 8.13831966 -13.953125 5.23828125 C-9.97674038 0.40814346 -6.26572694 -1.38981004 0 0 Z " fill="#FBBF22" transform="translate(68,54)"/>
<path d="M0 0 C0.89203125 0.00902344 1.7840625 0.01804688 2.703125 0.02734375 C3.37859375 0.03894531 4.0540625 0.05054688 4.75 0.0625 C3.37992438 3.71823061 1.73982135 7.01717647 -0.25 10.375 C-0.765625 11.25800781 -1.28125 12.14101563 -1.8125 13.05078125 C-2.286875 13.71464844 -2.76125 14.37851562 -3.25 15.0625 C-3.91 15.0625 -4.57 15.0625 -5.25 15.0625 C-7.47656164 10.31895564 -8.71148032 6.33999285 -9.25 1.0625 C-6.09493858 0.12630187 -3.28413498 -0.0432123 0 0 Z " fill="#F6DE70" transform="translate(44.25,41.9375)"/>
<path d="M0 0 C0.93423645 3.01031744 1.04449911 3.86650268 0 7 C-0.66 7 -1.32 7 -2 7 C-2 7.99 -2 8.98 -2 10 C-2.66 10 -3.32 10 -4 10 C-4.061875 10.70125 -4.12375 11.4025 -4.1875 12.125 C-5.29201202 16.0332733 -7.28230992 18.00357248 -10 21 C-10.33 20.34 -10.66 19.68 -11 19 C-10.00390625 16.8359375 -10.00390625 16.8359375 -8.5625 14.375 C-7.85287109 13.14910156 -7.85287109 13.14910156 -7.12890625 11.8984375 C-6.75636719 11.27195312 -6.38382813 10.64546875 -6 10 C-6.433125 10.495 -6.86625 10.99 -7.3125 11.5 C-9 13 -9 13 -12 13 C-16 8.65714286 -16 8.65714286 -16 6 C-15.26394531 6.06960937 -14.52789062 6.13921875 -13.76953125 6.2109375 C-8.15636777 6.71998174 -8.15636777 6.71998174 -3.15625 4.6640625 C-1.6298347 2.85062561 -1.6298347 2.85062561 0 0 Z " fill="#FEDE4C" transform="translate(74,82)"/>
<path d="M0 0 C0.33 0 0.66 0 1 0 C0.67 2.31 0.34 4.62 0 7 C0.66 7.33 1.32 7.66 2 8 C1.38125 8.268125 0.7625 8.53625 0.125 8.8125 C-2.2995233 9.95556848 -2.2995233 9.95556848 -4 13 C-4.66 13 -5.32 13 -6 13 C-6.13019531 13.72832031 -6.26039062 14.45664062 -6.39453125 15.20703125 C-8.02319126 22.71988226 -11.56882795 29.19131163 -15.60546875 35.66015625 C-17.4050314 38.67959049 -18.7207234 41.73073759 -20 45 C-20.99 44.34 -21.98 43.68 -23 43 C-22.43410156 42.13117188 -21.86820312 41.26234375 -21.28515625 40.3671875 C-20.54374793 39.20345798 -19.80289165 38.03937662 -19.0625 36.875 C-18.68931641 36.30523437 -18.31613281 35.73546875 -17.93164062 35.1484375 C-15.15608575 30.7475577 -13.47494574 26.85029458 -14.4375 21.625 C-14.623125 21.08875 -14.80875 20.5525 -15 20 C-13.68 20.66 -12.36 21.32 -11 22 C-10.78085938 21.38253906 -10.56171875 20.76507813 -10.3359375 20.12890625 C-8.2368151 14.52271349 -5.7581593 9.77657158 -2.26953125 4.91015625 C-0.82915016 2.92370044 -0.82915016 2.92370044 0 0 Z " fill="#F9D85D" transform="translate(97,38)"/>
<path d="M0 0 C0.33 1.32 0.66 2.64 1 4 C-4.10334017 5.905247 -8.46342706 7.42589023 -14 7 C-12.4375 4.0625 -12.4375 4.0625 -10 1 C-6.52786033 0.14719377 -3.55766471 0 0 0 Z " fill="#FAA210" transform="translate(91,80)"/>
<path d="M0 0 C3.50944037 2.58590343 4.9957983 3.9915966 7 8 C2.71 8 -1.58 8 -6 8 C-2.25 2.25 -2.25 2.25 0 0 Z " fill="#9186ED" transform="translate(63,33)"/>
<path d="M0 0 C0.66 0 1.32 0 2 0 C3.65 3.3 5.3 6.6 7 10 C0.9453125 10.1953125 0.9453125 10.1953125 -1 10 C-1.66 9.34 -2.32 8.68 -3 8 C-2.01 5.36 -1.02 2.72 0 0 Z " fill="#9C6EE9" transform="translate(39,71)"/>
<path d="M0 0 C0.66 0 1.32 0 2 0 C3.49821059 3.37097383 4 5.20442119 4 9 C1.04335481 10.4783226 -1.74229737 10.06032783 -5 10 C-3.35 6.7 -1.7 3.4 0 0 Z " fill="#B250F1" transform="translate(86,71)"/>
<path d="M0 0 C2.97 0.33 5.94 0.66 9 1 C8.125 7.75 8.125 7.75 7 10 C6.34 10 5.68 10 5 10 C3.7109375 8.3203125 3.7109375 8.3203125 2.375 6.125 C1.92898437 5.40570313 1.48296875 4.68640625 1.0234375 3.9453125 C0 2 0 2 0 0 Z " fill="#A167F4" transform="translate(81,47)"/>
<path d="M0 0 C-1.65 3.3 -3.3 6.6 -5 10 C-5.66 10 -6.32 10 -7 10 C-8.49821059 6.62902617 -9 4.79557881 -9 1 C-5.8035914 -0.06546953 -3.34252724 -0.07427838 0 0 Z " fill="#8884F1" transform="translate(46,47)"/>
<path d="M0 0 C3.63 0 7.26 0 11 0 C9 4 9 4 7 7 C6.01 7 5.02 7 4 7 C0 2.65714286 0 2.65714286 0 0 Z " fill="#AD52F2" transform="translate(58,88)"/>
<path d="M0 0 C4.95 0 9.9 0 15 0 C15.33 0.99 15.66 1.98 16 3 C10.39 3 4.78 3 -1 3 C-0.67 2.01 -0.34 1.02 0 0 Z " fill="#FFE97F" transform="translate(56,41)"/>
<path d="M0 0 C0.66 0.33 1.32 0.66 2 1 C2.433125 2.3921875 2.433125 2.3921875 2.875 3.8125 C4.06696786 7.18974227 5.32956672 8.68562449 8 11 C7.67 11.99 7.34 12.98 7 14 C6.01 13.01 5.02 12.02 4 11 C3.01 11.495 3.01 11.495 2 12 C1.01 8.37 0.02 4.74 -1 1 C-0.67 0.67 -0.34 0.34 0 0 Z " fill="#FBD747" transform="translate(88,68)"/>
<path d="M0 0 C4.29 0 8.58 0 13 0 C10.93139984 2.06860016 9.97071268 2.95126944 7.0546875 3.09765625 C5.03645833 3.06510417 3.01822917 3.03255208 1 3 C0.67 2.01 0.34 1.02 0 0 Z " fill="#FDDE48" transform="translate(79,44)"/>
<path d="M0 0 C1.98 0.99 1.98 0.99 4 2 C4.33 1.34 4.66 0.68 5 0 C5.66 0 6.32 0 7 0 C6.34 1.98 5.68 3.96 5 6 C3.0625 5.25 3.0625 5.25 1 4 C0.25 1.875 0.25 1.875 0 0 Z " fill="#FEE25F" transform="translate(82,58)"/>
<path d="M0 0 C0.33 0 0.66 0 1 0 C1.66 2.97 2.32 5.94 3 9 C2.34 9 1.68 9 1 9 C1 8.34 1 7.68 1 7 C-0.65 6.67 -2.3 6.34 -4 6 C-2.68 5.34 -1.36 4.68 0 4 C0 2.68 0 1.36 0 0 Z " fill="#E0C666" transform="translate(29,41)"/>
<path d="M0 0 C0.33 0.66 0.66 1.32 1 2 C1.99 2 2.98 2 4 2 C4.33 3.65 4.66 5.3 5 7 C2.5 5.75 2.5 5.75 0 4 C0 2.68 0 1.36 0 0 Z " fill="#F8D66D" transform="translate(90,70)"/>
</svg>
