<svg width="20" height="20" viewBox="0 0 20 20" fill="none" xmlns="http://www.w3.org/2000/svg">
<path d="M14.1667 6.66699V5.83366C14.1667 3.53616 12.2975 1.66699 10 1.66699C7.70254 1.66699 5.83337 3.53616 5.83337 5.83366V8.33366H5.00004C4.08087 8.33366 3.33337 9.08116 3.33337 10.0003V16.667C3.33337 17.5862 4.08087 18.3337 5.00004 18.3337H15C15.9192 18.3337 16.6667 17.5862 16.6667 16.667V10.0003C16.6667 9.08116 15.9192 8.33366 15 8.33366H7.50004V5.83366C7.50004 4.45533 8.62171 3.33366 10 3.33366C11.3784 3.33366 12.5 4.45533 12.5 5.83366V6.66699H14.1667ZM15 10.0003L15.0017 16.667H5.00004V10.0003H15Z" fill="#1C1916"/>
</svg>
