<svg width="36" height="19" viewBox="0 0 36 19" fill="none" xmlns="http://www.w3.org/2000/svg">
<path d="M0 8C0 3.58172 3.58172 0 8 0H28C32.4183 0 36 3.58172 36 8V11C36 15.4183 32.4183 19 28 19H0V8Z" fill="#875DFF"/>
<path d="M12.2984 5.27273V14H11.2757L6.52004 7.14773H6.43481V14H5.37799V5.27273H6.40072L11.1734 12.142H11.2587V5.27273H12.2984ZM14.2931 14V5.27273H19.5602V6.21023H15.35V9.15909H19.2875V10.0966H15.35V13.0625H19.6284V14H14.2931ZM22.9302 14L20.5439 5.27273H21.6177L23.4416 12.3807H23.5268L25.3848 5.27273H26.578L28.4359 12.3807H28.5212L30.345 5.27273H31.4189L29.0325 14H27.9416L26.0155 7.04545H25.9473L24.0212 14H22.9302Z" fill="white"/>
</svg>
