<svg width="119" height="64" viewBox="0 0 119 64" fill="none" xmlns="http://www.w3.org/2000/svg">
<g style="mix-blend-mode:hard-light">
<path fill-rule="evenodd" clip-rule="evenodd" d="M32.2656 6.80851C25.5832 6.80851 19.1777 9.45965 14.4516 14.1859C9.72527 18.9121 7.07414 25.3176 7.07414 32C7.07414 38.6824 9.72527 45.0879 14.4516 49.8141C19.1777 54.5403 25.5832 57.1915 32.2656 57.1915H35.3235C27.8569 51.3338 23.0608 42.228 23.0608 32C23.0608 21.772 27.8569 12.6662 35.3235 6.80851H32.2656ZM55.4145 0.00191374V0H55.0608H32.2656C23.7787 0 15.6412 3.36759 9.63717 9.37154C3.63321 15.3755 0.265625 23.513 0.265625 32C0.265625 40.487 3.63321 48.6245 9.63717 54.6285C15.6412 60.6323 23.7787 64 32.2656 64H55.0608H55.4145V63.9981C59.5024 63.9538 63.4061 63.1435 66.9891 61.7038V64H86.7337C95.2206 64 103.358 60.6323 109.362 54.6285C115.366 48.6245 118.734 40.487 118.734 32C118.734 23.513 115.366 15.3755 109.362 9.37154C103.358 3.36759 95.2206 0 86.7337 0H66.9891V2.29627C63.4061 0.856547 59.5024 0.0461658 55.4145 0.00191374ZM66.9891 9.80474C63.4386 7.89313 59.3767 6.80851 55.0608 6.80851C41.1452 6.80851 29.8693 18.0843 29.8693 32C29.8693 45.9157 41.1452 57.1915 55.0608 57.1915C59.3767 57.1915 63.4386 56.1069 66.9891 54.1952V9.80474ZM73.7975 48.8414V15.1586C77.8106 19.6207 80.2522 25.5246 80.2522 32C80.2522 38.4754 77.8106 44.3793 73.7975 48.8414ZM74.7983 57.1915C82.2647 51.3338 87.0608 42.228 87.0608 32C87.0608 21.772 82.2647 12.6662 74.7983 6.80851H86.7337C93.4161 6.80851 99.8216 9.45965 104.548 14.1859C109.274 18.9121 111.925 25.3176 111.925 32C111.925 38.6824 109.274 45.0879 104.548 49.8141C99.8216 54.5403 93.4161 57.1915 86.7337 57.1915H74.7983Z" fill="white"/>
</g>
</svg>
